<svg aria-labelledby="invitae-logo-light" height="54" role="img" viewBox="0 0 190 54" width="190" xmlns="http://www.w3.org/2000/svg"><title id="invitae-logo-light">Invitae</title><g fill="#fff" fill-rule="evenodd"><path d="m69.5949219 35.6539453h2.782832v-17.499668h-2.782832z"></path><path d="m127.639551 35.6539453h2.783945v-17.499668h-2.783945z"></path><path d="m146.501133 20.4613672v15.1925781h-2.746094v-15.1925781h-6.2225v-2.3070899h15.193691v2.3070899z"></path><path d="m178.630059 35.6539453v-17.499668h10.835937v2.3070899h-8.05459v5.050957h6.662617v2.3089453h-6.662617v5.5278125h8.274278v2.3048633z"></path><path d="m117.61 18.1542773-4.73627 12.1904297c-.071992.1458399-.14621.3291602-.218945.5503321-.037851-.2211719-.073476-.3299024-.18332-.5503321l-5.088809-12.1904297h-2.998066l7.427812 17.499668h1.46545l7.320566-17.499668z"></path><path d="m158.507871 35.6539453 4.73627-12.1904297c.071992-.1462109.145097-.3302734.218203-.5507031.037109.2204297.073847.3299023.183691.5507031l5.087324 12.1904297h2.998438l-7.427442-17.499668h-1.464335l-7.321309 17.499668z"></path><path d="m95.6534961 35.6539453-9.8855664-12.4112305c-.2196875-.2567968-.7689063-.9158593-.9147461-1.3184961v13.7297266h-2.5627734v-17.499668h2.7835742l9.425039 11.8679493c.2935352.4044921.9778321 1.3366797 1.1544727 1.8127929v-13.6807422h2.5256641v17.499668z"></path><path d="m29.730918 13.1626953-.3937305-.5933789c-2.8470312-4.28873046-10.026582-7.74435546-17.7260352-5.70148437l-.6880078.18257813-.3651562-1.37712891.6880078-.18257813c7.3198242-1.94267578 15.607832.76185547 19.2779492 6.29041018l.3944727.59375z"></path><path d="m33.313457 14.4132812-.2193164-.6779882c-1.5845703-4.89806644-7.5658594-10.16240238-15.5302734-10.27150394l-.7128711-.01001953.0204101-1.42425781.712129.00964844c7.572539.10390625 14.8233398 4.94333984 16.866582 11.25750004l.2185742.6776171z"></path><path d="m36.4258203 16.5830664-.0282031-.7117578c-.205586-5.1437305-4.5451563-11.82675782-12.1844922-14.08041016l-.6828125-.20150391.4030078-1.36636719.6835547.201875c7.2630469 2.14269532 12.9389258 8.75855469 13.2042578 15.38962886l.0282031.7113868z"></path><path d="m40.2232227 19.8416406-1.3860352-.3291601.1647656-.6932032c1.1897266-5.0079101-1.1860156-12.61347652-7.9343554-16.84468746l-.6033985-.37851562.7570313-1.20716797.6030273.37851563c6.4169531 4.02302734 10.097832 11.92509762 8.5641016 18.38138672z"></path><path d="m41.6151953 23.6742969-1.2465039-.6906055.3458594-.6234375c2.4963476-4.5013672 2.2599609-12.46578124-3.0960352-18.36023437l-.4787109-.52695312 1.0539062-.95853516.4794532.52732422c5.0928906 5.6046289 6.5056445 14.20658203 3.2875195 20.00937503z"></path><path d="m41.9209766 27.7414844-1.0127149-1.0019532.5009766-.506914c3.618164-3.6604688 5.5385742-11.3936914 1.9705078-18.51460939l-.3183984-.63679687 1.2735937-.63828125.3191406.63679687c3.392168 6.77060544 2.4325196 15.43564454-2.2325 20.15484374z"></path><path d="m41.1197852 31.7385352-.7058204-1.2379688.6186133-.3529102c4.4713086-2.5483007 8.4067578-9.476621 6.8926953-17.2955664l-.1358203-.6991406 1.3990235-.2708984.1354492.6991406c1.4391015 7.4348633-1.8216992 15.5191406-7.5855274 18.8044336z"></path><path d="m39.2680273 35.3733984-.3454882-1.3819531.6909765-.174043c4.9938086-1.2479882 10.6522461-6.8578125 11.3035157-14.7955078l.0582617-.7099023 1.4198047.1165234-.0586329.7095313c-.6186132 7.5476758-5.9404687 14.4526172-12.3770898 16.0616797z"></path><path d="m37.5650781 38.3966992c-.1165234 0-.2311914-.0014844-.3473437-.0051953l-.7121289-.0204101.0404492-1.4242579.7117578.0204102c5.1322266.1436133 12.1065625-3.7291211 14.875293-11.1973828l.2478906-.6675977 1.3355664.4950391-.2475195.6679687c-2.5865235 6.9758204-9.3767969 12.1306836-15.9039649 12.1314258"></path><path d="m37.7172266 41.3123828c-1.3771289 0-2.7253125-.1892578-4.0011329-.5863281l-.6798437-.2107813.4230469-1.3611718.6798437.2115234c4.9151367 1.5285352 12.6639453-.324707 17.345293-6.7694922l.4185937-.5763086 1.1526172.8379297-.4185937.5755664c-3.5554492 4.8936133-9.4599219 7.8790625-14.9198242 7.8790625"></path><path d="m37.8998047 44.2703711c-2.9873047 0-5.8566016-.7343945-8.1844727-2.2410352l-.597832-.3870507.7748437-1.1960352.597461.3870508c4.3202734 2.7984179 12.2817187 3.103457 18.5275976-1.8387696l.5584961-.4427148.8843164 1.1173633-.5588671.4423437c-3.4567383 2.7345899-7.8426954 4.1581055-12.001543 4.1588477"></path><path d="m38.004082 47.2758594c-4.8813672 0-9.5983398-1.7894141-12.4925-5.070625l-.4716601-.5340039 1.0683789-.9429492.4716601.534746c3.4036719 3.8582618 10.9869727 6.3000586 18.3372266 3.2270313l.6564648-.2749805.5492188 1.3147852-.6560938.2742383c-2.379082.9949023-4.9429687 1.4717578-7.4626953 1.4717578"></path><path d="m37.3806445 50.2282814c-6.7698632.000742-13.3716211-3.6170509-15.9651953-8.9882619l-.3094922-.6423633 1.2832422-.6189843.3094922.6416211c2.2369531 4.6342187 8.8787891 9.0324218 16.7867969 8.055332l.7069336-.0875781.174414 1.4138672-.7065625.0879492c-.7577734.0931445-1.5203711.1384181-2.2796289.1384181"></path><path d="m33.6170117 52.7554297-.7043359-.1072461c-7.4886719-1.1314649-14.0154688-6.9108789-15.1807031-13.4428711l-.1250586-.700625 1.4027343-.2501172.1250586.7009961c.9036133 5.0669141 6.1148828 11.0934766 13.9917188 12.2843164l.7043359.1065039z"></path><path d="m26.3751172 53.5851953-.6497852-.2920508c-6.9067968-3.1119922-11.6323047-10.4362695-10.9917968-17.0391406l.0690234-.7087891 1.4179492.1369336-.0690234.7095313c-.4965235 5.1207226 2.8949023 12.3295898 10.1590625 15.6026367l.6497851.2920508z"></path><path d="m19.1762695 52.4329492-.54625-.4571875c-5.8102148-4.8591015-8.3844922-13.1890429-5.9879687-19.3736914l.2582812-.6642578 1.3277735.5139648-.2575391.6653711c-1.8591797 4.7975-.5369726 12.6542969 5.573457 17.7661133l.5466211.4568164z"></path><path d="m12.5563281 49.3807031-.4030078-.5878125c-4.28390624-6.2484765-4.51546874-14.9625-.5391992-20.2702539l.4267578-.5703711 1.1403711.8538867-.4267578.5703711c-3.08490236 4.1176563-3.93210939 12.0390235.5737109 18.6110938l.4026367.5866992z"></path><path d="m1.56972656 25.0547656-1.25541015-.673164.33621093-.6278907c3.57734375-6.6759765 11.21074216-10.8860351 17.75609376-9.7946484l.7028516.1176367-.2345313 1.4053321-.7021094-.1176368c-5.0780468-.8483203-12.50437497 2.0410157-16.26652341 9.0621094z"></path><path d="m2.98804688 18.2670898-1.02792969-.9874804.49355468-.5132227c5.24578126-5.4628711 13.73158203-7.45787107 19.74033203-4.6405273l.6445899.3020703-.6045118 1.2899219-.645332-.3024414c-4.6605664-2.1861133-12.59121094-1.4079297-18.10751953 4.3373437z"></path><path d="m25.9446484 12.9248242-.5395703-.4653515c-3.8983398-3.36062504-11.7458593-4.75148442-18.60738279-.7076758l-.61267578.3618164-.72363281-1.2275781.61304687-.3618165c6.52419921-3.84527339 15.23451171-3.47714839 20.26134761.8564844l.5395704.4653516z"></path><path d="m7.00587891 44.6544531-.22970703-.6739062c-2.44105469-7.1706446-.31320313-15.6245313 4.94816402-19.665l.5644336-.4341797.8683594 1.1299805-.5655469.4338085c-4.08091794 3.1342579-7.03371091 10.5349805-4.46685544 18.0763477l.22933594.6742773z"></path><path d="m2.93498047 38.6067383-.03896484-.7110156c-.41636719-7.5632618 3.91318359-15.1291211 10.06962887-17.6009766l.6612891-.265332.530293 1.3218359-.660918.265332c-4.77597657 1.9174414-9.61541016 8.2471875-9.17751954 16.2008399l.03859375.7117578z"></path><path d="m2.03804688 31.9938477-1.39123047-.30875.1540039-.6958008c1.63986328-7.3936719 7.8497461-13.5118946 14.44482419-14.2318164l.7080469-.0775586.154375 1.4164648-.708418.0771875c-5.1162695.5584961-11.48349606 5.347832-13.20759762 13.1244727z"></path></g></svg>